<svg xmlns="http://www.w3.org/2000/svg" xmlns:xlink="http://www.w3.org/1999/xlink" viewBox="0 0 152.79 152.79"><defs><style>.cls-1{fill:#282728;}.cls-2{fill:url(#linear-gradient);}.cls-3{fill:url(#linear-gradient-2);}.cls-4{fill:url(#linear-gradient-3);}.cls-5{fill:url(#linear-gradient-4);}</style><linearGradient id="linear-gradient" x1="70.93" y1="91.55" x2="108.24" y2="91.55" gradientUnits="userSpaceOnUse"><stop offset="0" stop-color="#85f1ce"/><stop offset="0.25" stop-color="#89eec6"/><stop offset="0.63" stop-color="#96e6b0"/><stop offset="1" stop-color="#a5dc95"/></linearGradient><linearGradient id="linear-gradient-2" x1="47.16" y1="106.55" x2="83.37" y2="106.55" xlink:href="#linear-gradient"/><linearGradient id="linear-gradient-3" x1="45.33" y1="61.12" x2="82.64" y2="61.12" gradientUnits="userSpaceOnUse"><stop offset="0" stop-color="#a5dc95"/><stop offset="0.02" stop-color="#a4dc96"/><stop offset="0.66" stop-color="#8eebbf"/><stop offset="1" stop-color="#85f1ce"/></linearGradient><linearGradient id="linear-gradient-4" x1="70.21" y1="46.13" x2="106.42" y2="46.13" gradientUnits="userSpaceOnUse"><stop offset="0.08" stop-color="#a5dc95"/><stop offset="0.09" stop-color="#a4dc96"/><stop offset="0.69" stop-color="#8eebbf"/><stop offset="1" stop-color="#85f1ce"/></linearGradient></defs><title>Asset 9</title><g id="Layer_2" data-name="Layer 2"><g id="Layer_2-2" data-name="Layer 2"><rect class="cls-1" width="152.79" height="152.79" rx="24.13"/></g><g id="Layer_1-2" data-name="Layer 1"><path class="cls-2" d="M95.81,119H70.93a12.44,12.44,0,0,0,12.44-12.44v-30a12.44,12.44,0,1,1,24.87,0v30A12.44,12.44,0,0,1,95.81,119Z"/><path class="cls-3" d="M70.93,119H47.16V94.11H83.37v12.44A12.44,12.44,0,0,1,70.93,119Z"/><path class="cls-4" d="M57.77,33.69H82.64A12.43,12.43,0,0,0,70.21,46.13v30a12.44,12.44,0,1,1-24.88,0v-30A12.44,12.44,0,0,1,57.77,33.69Z"/><path class="cls-5" d="M82.64,33.69h23.78V58.56H70.21V46.13A12.43,12.43,0,0,1,82.64,33.69Z"/></g></g></svg>