<?xml version="1.0" encoding="utf-8"?>
<!-- Generator: Adobe Illustrator 25.4.1, SVG Export Plug-In . SVG Version: 6.00 Build 0)  -->
<svg version="1.1" id="Layer_1" xmlns="http://www.w3.org/2000/svg" xmlns:xlink="http://www.w3.org/1999/xlink" x="0px" y="0px"
	 viewBox="0 0 729.5 638.5" style="enable-background:new 0 0 729.5 638.5;" xml:space="preserve">
<style type="text/css">
	.st0{fill:none;}
	.st1{fill:none;stroke:#000000;stroke-width:2;}
	.st2{fill:none;stroke:#E53E00;stroke-width:2;}
	.st3{fill:none;stroke:#0076FF;stroke-width:2;}
	.st4{fill:none;stroke:#000000;stroke-width:2;stroke-linecap:square;}
	.st5{font-family:'SFProDisplay-Bold';}
	.st6{font-size:20px;}
	.st7{font-family:'SFProDisplay-Regular';}
	.st8{font-size:15px;}
	.st9{fill:none;stroke:#1976FF;stroke-width:2;}
	.st10{fill:#C6C6C6;}
</style>
<g id="Rectangle_1" transform="translate(367 121)">
	<rect x="-110.3" y="-114" class="st0" width="229" height="89"/>
	<rect x="-109.3" y="-113" class="st1" width="227" height="87"/>
</g>
<g id="Rectangle_2" transform="translate(393 248)">
	<rect x="-110.3" y="-114" class="st0" width="177" height="69"/>
	<rect x="-109.3" y="-113" class="st2" width="175" height="67"/>
</g>
<g id="Rectangle_3" transform="translate(367 121)">
	<rect x="-110.3" y="-114" class="st0" width="229" height="89"/>
	<rect x="-109.3" y="-113" class="st3" width="227" height="87"/>
</g>
<g id="Rectangle_5" transform="translate(645 248)">
	<rect x="-110.3" y="-114" class="st0" width="177" height="69"/>
	<rect x="-109.3" y="-113" class="st2" width="175" height="67"/>
</g>
<g id="Rectangle_7" transform="translate(143 248)">
	<rect x="-110.3" y="-114" class="st0" width="177" height="69"/>
	<rect x="-109.3" y="-113" class="st2" width="175" height="67"/>
</g>
<line id="Line_1" class="st1" x1="371.2" y1="93.5" x2="371.2" y2="134.5"/>
<line id="Line_2" class="st1" x1="623.2" y1="114.5" x2="121.2" y2="114.5"/>
<path id="Path_1" class="st4" d="M622.7,114.5v20.9"/>
<path id="Path_2" class="st4" d="M120.7,114.5v20.9"/>
<g id="Rectangle_8" transform="translate(143 330)">
	<rect x="-110.3" y="-114" class="st0" width="177" height="48"/>
	<rect x="-109.3" y="-113" class="st1" width="175" height="46"/>
</g>
<g id="Rectangle_9" transform="translate(143 391)">
	<rect x="-110.3" y="-114" class="st0" width="177" height="48"/>
	<rect x="-109.3" y="-113" class="st1" width="175" height="46"/>
</g>
<g id="Rectangle_11" transform="translate(143 452)">
	<rect x="-110.3" y="-114" class="st0" width="177" height="48"/>
	<rect x="-109.3" y="-113" class="st1" width="175" height="46"/>
</g>
<g id="Rectangle_12" transform="translate(393 330)">
	<rect x="-110.3" y="-114" class="st0" width="177" height="48"/>
	<rect x="-109.3" y="-113" class="st1" width="175" height="46"/>
</g>
<g id="Rectangle_13" transform="translate(645 330)">
	<rect x="-110.3" y="-114" class="st0" width="177" height="48"/>
	<rect x="-109.3" y="-113" class="st1" width="175" height="46"/>
</g>
<g id="Rectangle_14" transform="translate(645 391)">
	<rect x="-110.3" y="-114" class="st0" width="177" height="48"/>
	<rect x="-109.3" y="-113" class="st1" width="175" height="46"/>
</g>
<g id="Rectangle_15" transform="translate(364 510)">
	<rect x="-110.3" y="-114" class="st0" width="177" height="48"/>
	<rect x="-109.3" y="-113" class="st1" width="175" height="46"/>
</g>
<g id="Rectangle_16" transform="translate(364 572)">
	<rect x="-110.3" y="-114" class="st0" width="177" height="48"/>
	<rect x="-109.3" y="-113" class="st1" width="175" height="46"/>
</g>
<g id="Rectangle_17" transform="translate(364 634)">
	<rect x="-110.3" y="-114" class="st0" width="177" height="48"/>
	<rect x="-109.3" y="-113" class="st1" width="175" height="46"/>
</g>
<g id="Rectangle_18" transform="translate(364 696)">
	<rect x="-110.3" y="-114" class="st0" width="177" height="48"/>
	<rect x="-109.3" y="-113" class="st1" width="175" height="46"/>
</g>
<path id="Path_3" class="st4" d="M33.1,168.5H12.2"/>
<path id="Path_4" class="st4" d="M33.1,240H12.2"/>
<path id="Path_5" class="st4" d="M33.1,300.5H12.2"/>
<path id="Path_6" class="st4" d="M33.1,362H12.2"/>
<line id="Line_4" class="st4" x1="372.2" y1="203.5" x2="372.2" y2="216.5"/>
<line id="Line_5" class="st4" x1="623.2" y1="203.5" x2="623.2" y2="216.5"/>
<line id="Line_6" class="st4" x1="623.2" y1="264.5" x2="623.2" y2="277.5"/>
<path id="Path_8" class="st4" d="M231,362h-20.8"/>
<path id="Path_11" class="st4" d="M254,422.5h-20.8"/>
<path id="Path_12" class="st4" d="M254,484h-20.8"/>
<path id="Path_13" class="st4" d="M254,544.5h-20.8"/>
<path id="Path_14" class="st4" d="M231,362v244"/>
<path id="Path_15" class="st4" d="M254,606h-20.8"/>
<text transform="matrix(1 0 0 1 312.111 47)" class="st5 st6">HOME PAGE</text>
<text transform="matrix(1 0 0 1 334.6862 176)" class="st5 st6">EVENTS</text>
<text transform="matrix(1 0 0 1 86.6862 176)" class="st5 st6">ABOUT</text>
<text transform="matrix(1 0 0 1 599.6862 176)" class="st5 st6">JOIN</text>
<text transform="matrix(1 0 0 1 288.8914 72.514)" class="st7 st8">welcome, news &amp; location</text>
<text transform="matrix(1 0 0 1 63.6862 245)" class="st7 st8">mission statement</text>
<text transform="matrix(1 0 0 1 71.6862 306)" class="st7 st8">executive board</text>
<text transform="matrix(1 0 0 1 89.6862 367)" class="st7 st8">contact us</text>
<text transform="matrix(1 0 0 1 318.6862 246)" class="st7 st8">photo &amp; info grid</text>
<text transform="matrix(1 0 0 1 568.6862 245)" class="st7 st8">comp information</text>
<text transform="matrix(1 0 0 1 589.6862 309)" class="st7 st8">link to form</text>
<text transform="matrix(1 0 0 1 293.6862 425)" class="st7 st8">mailing address</text>
<text transform="matrix(1 0 0 1 299.6862 487)" class="st7 st8">email address</text>
<text transform="matrix(1 0 0 1 304.6862 550)" class="st7 st8">social media</text>
<text transform="matrix(1 0 0 1 291.6862 611)" class="st7 st8">meeting location</text>
<g id="Rectangle_19" transform="translate(645 695)">
	<rect x="-110.3" y="-114" class="st0" width="177" height="49"/>
	<rect x="-109.3" y="-113" class="st2" width="175" height="47"/>
</g>
<text transform="matrix(1 0 0 1 572.6862 612)" class="st7 st8">secondary page</text>
<g id="Rectangle_20" transform="translate(645 636)">
	<rect x="-110.3" y="-114" class="st0" width="177" height="49"/>
	<rect x="-109.3" y="-113" class="st9" width="175" height="47"/>
</g>
<text transform="matrix(1 0 0 1 582.6862 551)" class="st7 st8">landing page</text>
<text transform="matrix(1 0 0 1 534.6862 508)" class="st10 st5 st8">KEY</text>
<g id="Rectangle_1-2" transform="translate(367 121)">
	<rect x="-110.3" y="-114" class="st0" width="229" height="89"/>
	<rect x="-109.3" y="-113" class="st1" width="227" height="87"/>
</g>
<g id="Rectangle_2-2" transform="translate(393 248)">
	<rect x="-110.3" y="-114" class="st0" width="177" height="69"/>
	<rect x="-109.3" y="-113" class="st2" width="175" height="67"/>
</g>
<g id="Rectangle_3-2" transform="translate(367 121)">
	<rect x="-110.3" y="-114" class="st0" width="229" height="89"/>
	<rect x="-109.3" y="-113" class="st3" width="227" height="87"/>
</g>
<g id="Rectangle_5-2" transform="translate(645 248)">
	<rect x="-110.3" y="-114" class="st0" width="177" height="69"/>
	<rect x="-109.3" y="-113" class="st2" width="175" height="67"/>
</g>
<g id="Rectangle_7-2" transform="translate(143 248)">
	<rect x="-110.3" y="-114" class="st0" width="177" height="69"/>
	<rect x="-109.3" y="-113" class="st2" width="175" height="67"/>
</g>
<line id="Line_1-2" class="st1" x1="371.2" y1="93.5" x2="371.2" y2="134.5"/>
<line id="Line_2-2" class="st1" x1="623.2" y1="114.5" x2="121.2" y2="114.5"/>
<path id="Path_1-2" class="st4" d="M622.7,114.5v20.9"/>
<path id="Path_2-2" class="st4" d="M120.7,114.5v20.9"/>
<g id="Rectangle_8-2" transform="translate(143 330)">
	<rect x="-110.3" y="-114" class="st0" width="177" height="48"/>
	<rect x="-109.3" y="-113" class="st1" width="175" height="46"/>
</g>
<g id="Rectangle_9-2" transform="translate(143 391)">
	<rect x="-110.3" y="-114" class="st0" width="177" height="48"/>
	<rect x="-109.3" y="-113" class="st1" width="175" height="46"/>
</g>
<g id="Rectangle_11-2" transform="translate(143 452)">
	<rect x="-110.3" y="-114" class="st0" width="177" height="48"/>
	<rect x="-109.3" y="-113" class="st1" width="175" height="46"/>
</g>
<g id="Rectangle_12-2" transform="translate(393 330)">
	<rect x="-110.3" y="-114" class="st0" width="177" height="48"/>
	<rect x="-109.3" y="-113" class="st1" width="175" height="46"/>
</g>
<g id="Rectangle_13-2" transform="translate(645 330)">
	<rect x="-110.3" y="-114" class="st0" width="177" height="48"/>
	<rect x="-109.3" y="-113" class="st1" width="175" height="46"/>
</g>
<g id="Rectangle_14-2" transform="translate(645 391)">
	<rect x="-110.3" y="-114" class="st0" width="177" height="48"/>
	<rect x="-109.3" y="-113" class="st1" width="175" height="46"/>
</g>
<g id="Rectangle_15-2" transform="translate(364 510)">
	<rect x="-110.3" y="-114" class="st0" width="177" height="48"/>
	<rect x="-109.3" y="-113" class="st1" width="175" height="46"/>
</g>
<g id="Rectangle_16-2" transform="translate(364 572)">
	<rect x="-110.3" y="-114" class="st0" width="177" height="48"/>
	<rect x="-109.3" y="-113" class="st1" width="175" height="46"/>
</g>
<g id="Rectangle_17-2" transform="translate(364 634)">
	<rect x="-110.3" y="-114" class="st0" width="177" height="48"/>
	<rect x="-109.3" y="-113" class="st1" width="175" height="46"/>
</g>
<g id="Rectangle_18-2" transform="translate(364 696)">
	<rect x="-110.3" y="-114" class="st0" width="177" height="48"/>
	<rect x="-109.3" y="-113" class="st1" width="175" height="46"/>
</g>
<path id="Path_3-2" class="st4" d="M33.1,168.5H12.2"/>
<path id="Path_4-2" class="st4" d="M33.1,240H12.2"/>
<path id="Path_5-2" class="st4" d="M33.1,300.5H12.2"/>
<path id="Path_6-2" class="st4" d="M33.1,362H12.2"/>
<line id="Line_3" class="st1" x1="12.2" y1="168.5" x2="12.2" y2="361.5"/>
<line id="Line_4-2" class="st4" x1="372.2" y1="203.5" x2="372.2" y2="216.5"/>
<line id="Line_5-2" class="st4" x1="623.2" y1="203.5" x2="623.2" y2="216.5"/>
<line id="Line_6-2" class="st4" x1="623.2" y1="264.5" x2="623.2" y2="277.5"/>
<path id="Path_8-2" class="st4" d="M231,362h-20.8"/>
<path id="Path_11-2" class="st4" d="M254,422.5h-20.8"/>
<path id="Path_12-2" class="st4" d="M254,484h-20.8"/>
<path id="Path_13-2" class="st4" d="M254,544.5h-20.8"/>
<path id="Path_14-2" class="st4" d="M231,362v244"/>
<path id="Path_15-2" class="st4" d="M254,606h-20.8"/>
<text transform="matrix(1 0 0 1 334.6862 176)" class="st5 st6">EVENTS</text>
<text transform="matrix(1 0 0 1 86.6862 176)" class="st5 st6">ABOUT</text>
<text transform="matrix(1 0 0 1 599.6862 176)" class="st5 st6">JOIN</text>
<text transform="matrix(1 0 0 1 63.6862 245)" class="st7 st8">mission statement</text>
<text transform="matrix(1 0 0 1 71.6862 306)" class="st7 st8">executive board</text>
<text transform="matrix(1 0 0 1 89.6862 367)" class="st7 st8">contact us</text>
<text transform="matrix(1 0 0 1 318.6862 246)" class="st7 st8">photo &amp; info grid</text>
<text transform="matrix(1 0 0 1 568.6862 245)" class="st7 st8">comp information</text>
<text transform="matrix(1 0 0 1 589.6862 309)" class="st7 st8">link to form</text>
<text transform="matrix(1 0 0 1 293.6862 425)" class="st7 st8">mailing address</text>
<text transform="matrix(1 0 0 1 299.6862 487)" class="st7 st8">email address</text>
<text transform="matrix(1 0 0 1 304.6862 550)" class="st7 st8">social media</text>
<text transform="matrix(1 0 0 1 291.6862 611)" class="st7 st8">meeting location</text>
<g id="Rectangle_19-2" transform="translate(645 695)">
	<rect x="-110.3" y="-114" class="st0" width="177" height="49"/>
	<rect x="-109.3" y="-113" class="st2" width="175" height="47"/>
</g>
<text transform="matrix(1 0 0 1 572.6862 612)" class="st7 st8">secondary page</text>
<g id="Rectangle_20-2" transform="translate(645 636)">
	<rect x="-110.3" y="-114" class="st0" width="177" height="49"/>
	<rect x="-109.3" y="-113" class="st9" width="175" height="47"/>
</g>
<text transform="matrix(1 0 0 1 582.6862 551)" class="st7 st8">landing page</text>
<text transform="matrix(1 0 0 1 534.6862 508)" class="st10 st5 st8">KEY</text>
</svg>
