<?xml version="1.0" encoding="utf-8"?>
<!-- Generator: Adobe Illustrator 25.4.1, SVG Export Plug-In . SVG Version: 6.00 Build 0)  -->
<svg version="1.1" id="Layer_1" xmlns="http://www.w3.org/2000/svg" xmlns:xlink="http://www.w3.org/1999/xlink" x="0px" y="0px"
	 viewBox="0 0 452.3 188.7" style="enable-background:new 0 0 452.3 188.7;" xml:space="preserve">
<style type="text/css">
	.st0{font-family:'RockSalt-Regular';}
	.st1{font-size:28px;}
	.st2{enable-background:new    ;}
	.st3{fill:#451544;}
	.st4{font-family:'SFProDisplay-Light';}
	.st5{font-size:9px;}
	.st6{fill:#FFFFFF;stroke:#000000;stroke-width:0.25;stroke-miterlimit:10;}
</style>
<text transform="matrix(1 0 0 1 8.6675 156.1521)" class="st0 st1">Rocksalt</text>
<g>
	<g class="st2">
		<path d="M2.7,42.1V22.2h8.2c0.8,0,1.6,0.2,2.3,0.5c0.7,0.3,1.3,0.8,1.8,1.4s0.9,1.2,1.2,2c0.3,0.7,0.4,1.5,0.4,2.2
			c0,1-0.2,2-0.6,2.8c-0.4,0.9-1,1.6-1.7,2.2c-0.7,0.6-1.6,0.9-2.5,1l5,7.8h-1.1l-4.9-7.7H3.7v7.7H2.7z M3.7,33.5H11
			c0.9,0,1.7-0.3,2.4-0.8c0.7-0.5,1.2-1.2,1.6-2c0.4-0.8,0.6-1.6,0.6-2.5c0-0.9-0.2-1.7-0.6-2.5c-0.4-0.8-1-1.4-1.7-1.9
			c-0.7-0.5-1.5-0.7-2.4-0.7H3.7V33.5z"/>
		<path d="M19.1,37.9c0-0.9,0.3-1.6,0.8-2.2c0.5-0.6,1.2-1.1,2.1-1.5c0.9-0.4,1.9-0.5,3.1-0.5c0.8,0,1.6,0.1,2.4,0.2
			c0.8,0.1,1.6,0.3,2.3,0.6v-1.5c0-1.4-0.4-2.6-1.2-3.4s-1.9-1.3-3.3-1.3c-0.7,0-1.5,0.1-2.3,0.4c-0.8,0.3-1.6,0.7-2.4,1.3l-0.5-0.7
			c1-0.7,1.9-1.1,2.7-1.5c0.9-0.3,1.7-0.5,2.5-0.5c1.7,0,3,0.5,4,1.5c1,1,1.5,2.4,1.5,4.1v7.7c0,0.2,0,0.4,0.1,0.5
			c0.1,0.1,0.2,0.2,0.4,0.2v0.8c-0.1,0-0.2,0-0.3,0s-0.2,0-0.2,0c-0.3-0.1-0.5-0.2-0.6-0.4c-0.1-0.2-0.2-0.5-0.3-0.7v-1.3
			c-0.7,0.9-1.5,1.5-2.6,2c-1.1,0.5-2.2,0.7-3.4,0.7c-0.9,0-1.7-0.2-2.4-0.6c-0.7-0.4-1.3-0.9-1.7-1.6
			C19.3,39.5,19.1,38.7,19.1,37.9z M29.3,39.1c0.2-0.2,0.3-0.4,0.4-0.7c0.1-0.2,0.1-0.4,0.1-0.6v-2.6c-0.7-0.3-1.5-0.5-2.3-0.6
			c-0.8-0.1-1.6-0.2-2.4-0.2c-1.5,0-2.8,0.3-3.8,0.9c-1,0.6-1.4,1.4-1.4,2.5c0,0.7,0.2,1.3,0.5,1.8c0.3,0.6,0.8,1,1.4,1.3
			c0.6,0.3,1.3,0.5,2,0.5c1.2,0,2.2-0.2,3.2-0.7C28.1,40.4,28.9,39.9,29.3,39.1z"/>
		<path d="M35.3,21.6h1v18.1c0,0.6,0.2,1,0.5,1.3c0.3,0.3,0.7,0.4,1.2,0.4c0.2,0,0.5,0,0.8-0.1s0.6-0.1,0.8-0.2l0.2,0.8
			c-0.3,0.1-0.6,0.2-1,0.3c-0.4,0.1-0.8,0.1-1.1,0.1c-0.7,0-1.3-0.2-1.7-0.7c-0.4-0.4-0.7-1-0.7-1.8V21.6z"/>
		<path d="M48.2,42.3c-1,0-1.9-0.2-2.8-0.6c-0.9-0.4-1.6-1-2.3-1.7c-0.6-0.7-1.1-1.5-1.5-2.4c-0.4-0.9-0.5-1.9-0.5-3
			c0-1.4,0.3-2.6,0.9-3.7c0.6-1.1,1.5-2,2.5-2.7c1.1-0.7,2.2-1,3.5-1c1.3,0,2.5,0.3,3.6,1s1.9,1.6,2.5,2.7c0.6,1.1,1,2.4,1,3.8
			c0,0.1,0,0.1,0,0.2c0,0.1,0,0.1,0,0.2h-13c0.1,1.2,0.4,2.2,1,3.2c0.6,1,1.3,1.7,2.2,2.3c0.9,0.6,1.9,0.8,3,0.8s2.1-0.3,3-0.8
			c0.9-0.5,1.6-1.3,2-2.1l0.9,0.2c-0.3,0.7-0.7,1.3-1.3,1.8c-0.6,0.5-1.3,1-2.1,1.3S49,42.3,48.2,42.3z M42,34.4h12.2
			c-0.1-1.2-0.4-2.3-0.9-3.2c-0.6-0.9-1.3-1.7-2.2-2.2s-1.9-0.8-3-0.8c-1.1,0-2.1,0.3-3,0.8s-1.6,1.3-2.2,2.2
			C42.4,32.1,42.1,33.2,42,34.4z"/>
		<path d="M76.8,27.5h1l-6.3,14.5h-0.8l-3.4-7.9l-3.4,7.9H63l-6.3-14.5h1l5.8,13.4l3.2-7.6l-2.4-5.8h0.9l2.1,4.9l2.1-4.9h0.9
			l-2.4,5.8l3.3,7.6L76.8,27.5z"/>
		<path d="M79.5,37.9c0-0.9,0.3-1.6,0.8-2.2c0.5-0.6,1.2-1.1,2.1-1.5c0.9-0.4,1.9-0.5,3.1-0.5c0.8,0,1.6,0.1,2.4,0.2
			c0.8,0.1,1.6,0.3,2.3,0.6v-1.5c0-1.4-0.4-2.6-1.2-3.4s-1.9-1.3-3.3-1.3c-0.7,0-1.5,0.1-2.3,0.4c-0.8,0.3-1.6,0.7-2.4,1.3l-0.5-0.7
			c1-0.7,1.9-1.1,2.7-1.5c0.9-0.3,1.7-0.5,2.5-0.5c1.7,0,3,0.5,4,1.5c1,1,1.5,2.4,1.5,4.1v7.7c0,0.2,0,0.4,0.1,0.5
			c0.1,0.1,0.2,0.2,0.4,0.2v0.8c-0.1,0-0.2,0-0.3,0s-0.2,0-0.2,0c-0.3-0.1-0.5-0.2-0.6-0.4c-0.1-0.2-0.2-0.5-0.3-0.7v-1.3
			c-0.7,0.9-1.5,1.5-2.6,2c-1.1,0.5-2.2,0.7-3.4,0.7c-0.9,0-1.7-0.2-2.4-0.6c-0.7-0.4-1.3-0.9-1.7-1.6
			C79.7,39.5,79.5,38.7,79.5,37.9z M89.7,39.1c0.2-0.2,0.3-0.4,0.4-0.7c0.1-0.2,0.1-0.4,0.1-0.6v-2.6c-0.7-0.3-1.5-0.5-2.3-0.6
			c-0.8-0.1-1.6-0.2-2.4-0.2c-1.5,0-2.8,0.3-3.8,0.9c-1,0.6-1.4,1.4-1.4,2.5c0,0.7,0.2,1.3,0.5,1.8c0.3,0.6,0.8,1,1.4,1.3
			c0.6,0.3,1.3,0.5,2,0.5c1.2,0,2.2-0.2,3.2-0.7C88.5,40.4,89.3,39.9,89.7,39.1z"/>
		<path d="M96.7,47.4c0.3,0,0.6,0,0.8,0c0.2,0,0.4-0.1,0.5-0.2c0.1-0.1,0.2-0.2,0.4-0.5c0.2-0.3,0.4-0.7,0.7-1.5
			c0.3-0.7,0.8-1.8,1.4-3.2l-6.6-14.5h1L101,41l5.7-13.5h1L99.4,47c-0.1,0.2-0.2,0.4-0.4,0.6c-0.1,0.2-0.3,0.3-0.5,0.4
			c-0.2,0.1-0.4,0.2-0.7,0.2c-0.2,0-0.3,0.1-0.5,0.1s-0.4,0-0.6,0V47.4z"/>
		<path d="M131.4,41.2v0.9h-13.1V22.2h12.9v0.9h-11.9v8.4h10.4v0.9h-10.4v8.8H131.4z"/>
		<path d="M134.5,27.5l5,6.3l0.2,0.4l0.2-0.4l5-6.3h1.1l-5.7,7.3l5.7,7.2h-1.1l-4.9-6.3l-0.2-0.3l-0.2,0.3l-4.9,6.3h-1.1l5.7-7.2
			l-5.7-7.3H134.5z"/>
		<path d="M154.8,41.5c0,0-0.2,0.1-0.4,0.2c-0.3,0.1-0.6,0.3-1,0.4s-0.9,0.2-1.4,0.2c-0.5,0-0.9-0.1-1.3-0.3c-0.4-0.2-0.7-0.5-1-0.8
			c-0.2-0.4-0.4-0.8-0.4-1.3V28.4h-2.1v-0.8h2.1v-5h1v5h3.4v0.8h-3.4v11.4c0,0.5,0.2,1,0.6,1.2c0.4,0.3,0.8,0.4,1.3,0.4
			c0.6,0,1.1-0.1,1.6-0.3c0.4-0.2,0.7-0.3,0.7-0.4L154.8,41.5z"/>
		<path d="M163.9,28.4c-1.3,0.1-2.5,0.5-3.5,1.3c-1,0.8-1.7,1.9-2.1,3.2v9.2h-1V27.5h0.9v3.7c0.5-1,1.2-1.9,2-2.5s1.7-1,2.7-1.1
			c0.2,0,0.4,0,0.5,0c0.2,0,0.3,0,0.4,0V28.4z"/>
		<path d="M165.4,37.9c0-0.9,0.3-1.6,0.8-2.2c0.5-0.6,1.2-1.1,2.1-1.5c0.9-0.4,1.9-0.5,3.1-0.5c0.8,0,1.6,0.1,2.4,0.2
			c0.8,0.1,1.6,0.3,2.3,0.6v-1.5c0-1.4-0.4-2.6-1.2-3.4c-0.8-0.9-1.9-1.3-3.3-1.3c-0.7,0-1.5,0.1-2.3,0.4c-0.8,0.3-1.6,0.7-2.4,1.3
			l-0.5-0.7c1-0.7,1.9-1.1,2.7-1.5c0.9-0.3,1.7-0.5,2.5-0.5c1.7,0,3,0.5,4,1.5c1,1,1.5,2.4,1.5,4.1v7.7c0,0.2,0,0.4,0.1,0.5
			c0.1,0.1,0.2,0.2,0.4,0.2v0.8c-0.1,0-0.2,0-0.3,0s-0.2,0-0.2,0c-0.3-0.1-0.5-0.2-0.6-0.4c-0.1-0.2-0.2-0.5-0.3-0.7v-1.3
			c-0.7,0.9-1.5,1.5-2.6,2c-1.1,0.5-2.2,0.7-3.4,0.7c-0.9,0-1.7-0.2-2.4-0.6c-0.7-0.4-1.3-0.9-1.7-1.6
			C165.6,39.5,165.4,38.7,165.4,37.9z M175.6,39.1c0.2-0.2,0.3-0.4,0.4-0.7c0.1-0.2,0.1-0.4,0.1-0.6v-2.6c-0.7-0.3-1.5-0.5-2.3-0.6
			c-0.8-0.1-1.6-0.2-2.4-0.2c-1.5,0-2.8,0.3-3.8,0.9s-1.4,1.4-1.4,2.5c0,0.7,0.2,1.3,0.5,1.8c0.3,0.6,0.8,1,1.4,1.3
			c0.6,0.3,1.3,0.5,2,0.5c1.2,0,2.2-0.2,3.2-0.7C174.4,40.4,175.2,39.9,175.6,39.1z"/>
		<path d="M181.9,42.1V22.2h1v19H195v0.9H181.9z"/>
		<path d="M197.7,24v-2.4h1V24H197.7z M197.7,42.1V27.5h1v14.6H197.7z"/>
		<path d="M209.1,42.3c-1,0-1.9-0.2-2.8-0.6c-0.9-0.4-1.6-1-2.2-1.7c-0.6-0.7-1.1-1.5-1.4-2.4c-0.3-0.9-0.5-1.8-0.5-2.7
			c0-1,0.2-1.9,0.5-2.8c0.3-0.9,0.8-1.7,1.4-2.4c0.6-0.7,1.3-1.3,2.1-1.7c0.8-0.4,1.7-0.6,2.7-0.6c1.3,0,2.4,0.3,3.4,1
			c1,0.7,1.8,1.5,2.5,2.5v-3.3h0.9v15c0,1.3-0.3,2.4-0.9,3.2c-0.6,0.9-1.4,1.5-2.5,1.9c-1,0.4-2.1,0.6-3.3,0.6c-1.7,0-3-0.3-4-1
			c-1-0.6-1.8-1.5-2.3-2.5l0.7-0.4c0.6,1,1.4,1.8,2.4,2.3c1,0.5,2.1,0.7,3.2,0.7c1,0,2-0.2,2.9-0.6c0.9-0.4,1.5-0.9,2.1-1.7
			c0.5-0.7,0.8-1.6,0.8-2.7v-3.4c-0.6,1-1.4,1.7-2.4,2.3C211.3,42,210.2,42.3,209.1,42.3z M209.3,41.5c0.7,0,1.3-0.1,1.9-0.4
			c0.6-0.2,1.2-0.6,1.7-1c0.5-0.4,0.9-0.9,1.3-1.4c0.3-0.5,0.5-1,0.6-1.5v-5c-0.3-0.8-0.7-1.5-1.3-2.1s-1.3-1.1-2-1.4
			c-0.7-0.3-1.5-0.5-2.3-0.5c-0.9,0-1.7,0.2-2.5,0.6c-0.7,0.4-1.4,0.9-1.9,1.6c-0.5,0.6-0.9,1.4-1.1,2.2c-0.3,0.8-0.4,1.6-0.4,2.4
			c0,0.9,0.2,1.7,0.5,2.5c0.3,0.8,0.7,1.5,1.3,2.1c0.6,0.6,1.2,1.1,2,1.5C207.6,41.3,208.4,41.5,209.3,41.5z"/>
		<path d="M231.8,42.1h-1v-8.1c0-1.9-0.3-3.3-1-4.3c-0.7-1-1.6-1.5-2.9-1.5c-0.8,0-1.7,0.2-2.5,0.6c-0.8,0.4-1.5,1-2.1,1.7
			s-1,1.5-1.3,2.4v9.1h-1V21.6h1v9.5c0.6-1.2,1.4-2.1,2.5-2.8c1.1-0.7,2.3-1,3.5-1c0.8,0,1.5,0.1,2,0.4c0.6,0.3,1,0.7,1.4,1.3
			c0.4,0.6,0.7,1.3,0.9,2.1c0.2,0.8,0.3,1.7,0.3,2.8V42.1z"/>
		<path d="M242.2,41.5c0,0-0.2,0.1-0.4,0.2c-0.3,0.1-0.6,0.3-1,0.4s-0.9,0.2-1.4,0.2c-0.5,0-0.9-0.1-1.3-0.3c-0.4-0.2-0.7-0.5-1-0.8
			c-0.2-0.4-0.4-0.8-0.4-1.3V28.4h-2.1v-0.8h2.1v-5h1v5h3.4v0.8h-3.4v11.4c0,0.5,0.2,1,0.6,1.2c0.4,0.3,0.8,0.4,1.3,0.4
			c0.6,0,1.1-0.1,1.6-0.3c0.4-0.2,0.7-0.3,0.7-0.4L242.2,41.5z"/>
	</g>
</g>
<g>
	<g class="st2">
		<path d="M2.5,78.1V58.2h8.4c0.9,0,1.6,0.2,2.4,0.5c0.7,0.4,1.3,0.8,1.9,1.4c0.5,0.6,0.9,1.3,1.2,2c0.3,0.7,0.4,1.5,0.4,2.3
			c0,1-0.2,1.8-0.5,2.7c-0.4,0.8-0.9,1.5-1.5,2.1c-0.7,0.6-1.4,1-2.3,1.1l4.9,7.7H15l-4.7-7.3H4.5v7.3H2.5z M4.5,69h6.5
			c0.8,0,1.5-0.2,2-0.6c0.6-0.4,1-1,1.3-1.7s0.5-1.4,0.5-2.2c0-0.8-0.2-1.5-0.5-2.2c-0.4-0.7-0.8-1.2-1.5-1.7
			c-0.6-0.4-1.3-0.6-2-0.6H4.5V69z"/>
		<path d="M19.2,73.9c0-0.9,0.3-1.7,0.8-2.4c0.5-0.7,1.2-1.2,2.2-1.5c0.9-0.4,2-0.5,3.2-0.5c0.7,0,1.4,0.1,2.2,0.2
			c0.8,0.1,1.4,0.3,2,0.5V69c0-1.2-0.4-2.2-1.1-2.9s-1.7-1.1-3-1.1c-0.8,0-1.6,0.1-2.3,0.4c-0.8,0.3-1.5,0.7-2.4,1.3l-0.7-1.3
			c1-0.7,1.9-1.1,2.8-1.5c0.9-0.3,1.8-0.5,2.8-0.5c1.8,0,3.2,0.5,4.3,1.5c1,1,1.6,2.4,1.6,4.2v6.7c0,0.3,0.1,0.5,0.2,0.6
			c0.1,0.1,0.3,0.2,0.5,0.2v1.5c-0.2,0-0.4,0-0.5,0.1c-0.1,0-0.3,0-0.3,0c-0.5,0-0.8-0.2-1.1-0.4c-0.2-0.3-0.4-0.6-0.4-0.9l0-1.1
			c-0.7,0.8-1.5,1.5-2.5,1.9s-2.1,0.7-3.2,0.7c-0.9,0-1.8-0.2-2.5-0.6c-0.8-0.4-1.3-0.9-1.8-1.6C19.4,75.5,19.2,74.8,19.2,73.9z
			 M29,75.1c0.2-0.3,0.4-0.5,0.5-0.7c0.1-0.2,0.2-0.5,0.2-0.6v-2.1c-0.6-0.2-1.3-0.4-2-0.6c-0.7-0.1-1.4-0.2-2.1-0.2
			c-1.4,0-2.5,0.3-3.3,0.8c-0.8,0.5-1.3,1.3-1.3,2.2c0,0.5,0.1,1,0.4,1.5c0.3,0.5,0.7,0.9,1.2,1.2c0.5,0.3,1.2,0.5,1.9,0.5
			c0.9,0,1.8-0.2,2.6-0.5S28.6,75.6,29,75.1z"/>
		<path d="M35.7,57.7h1.9v17.2c0,0.7,0.1,1.2,0.4,1.4c0.3,0.2,0.6,0.3,1,0.3c0.3,0,0.7,0,1-0.1c0.3-0.1,0.6-0.1,0.9-0.2l0.3,1.5
			c-0.4,0.1-0.8,0.3-1.3,0.4s-1,0.1-1.3,0.1c-0.9,0-1.5-0.3-2.1-0.8c-0.5-0.5-0.8-1.2-0.8-2.1V57.7z"/>
		<path d="M49.6,78.4c-1,0-2-0.2-2.9-0.6c-0.9-0.4-1.7-0.9-2.3-1.6c-0.7-0.7-1.2-1.5-1.5-2.4c-0.4-0.9-0.5-1.9-0.5-2.9
			c0-1.4,0.3-2.6,0.9-3.7c0.6-1.1,1.5-2,2.6-2.7c1.1-0.7,2.4-1,3.8-1c1.4,0,2.7,0.3,3.8,1c1.1,0.7,1.9,1.6,2.5,2.7
			c0.6,1.1,0.9,2.3,0.9,3.7c0,0.1,0,0.3,0,0.4c0,0.1,0,0.2,0,0.3H44.2c0.1,1,0.4,2,0.9,2.8s1.1,1.4,1.9,1.9c0.8,0.5,1.7,0.7,2.6,0.7
			c1,0,1.9-0.2,2.7-0.7c0.8-0.5,1.4-1.1,1.8-1.9l1.7,0.4c-0.3,0.7-0.8,1.3-1.4,1.9c-0.6,0.6-1.3,1-2.2,1.3
			C51.4,78.2,50.5,78.4,49.6,78.4z M44.2,70.2H55c-0.1-1.1-0.4-2-0.9-2.8c-0.5-0.8-1.1-1.4-1.9-1.9c-0.8-0.5-1.7-0.7-2.6-0.7
			c-1,0-1.8,0.2-2.6,0.7c-0.8,0.5-1.4,1.1-1.9,1.9S44.3,69.1,44.2,70.2z"/>
		<path d="M78.1,63.6h1.9l-6.3,14.5H72L69,70.9l-3,7.2h-1.7L58,63.6h1.8l5.3,12.6l2.7-6.6l-2.5-6h1.7l1.8,4.7l1.9-4.7h1.7l-2.4,6
			l2.7,6.6L78.1,63.6z"/>
		<path d="M81.3,73.9c0-0.9,0.3-1.7,0.8-2.4c0.5-0.7,1.2-1.2,2.2-1.5c0.9-0.4,2-0.5,3.2-0.5c0.7,0,1.4,0.1,2.2,0.2
			c0.8,0.1,1.4,0.3,2,0.5V69c0-1.2-0.4-2.2-1.1-2.9s-1.7-1.1-3-1.1c-0.8,0-1.6,0.1-2.3,0.4c-0.8,0.3-1.5,0.7-2.4,1.3l-0.7-1.3
			c1-0.7,1.9-1.1,2.8-1.5c0.9-0.3,1.8-0.5,2.8-0.5c1.8,0,3.2,0.5,4.3,1.5c1,1,1.6,2.4,1.6,4.2v6.7c0,0.3,0.1,0.5,0.2,0.6
			c0.1,0.1,0.3,0.2,0.5,0.2v1.5c-0.2,0-0.4,0-0.5,0.1c-0.1,0-0.3,0-0.3,0c-0.5,0-0.8-0.2-1.1-0.4c-0.2-0.3-0.4-0.6-0.4-0.9l0-1.1
			c-0.7,0.8-1.5,1.5-2.5,1.9s-2.1,0.7-3.2,0.7c-0.9,0-1.8-0.2-2.5-0.6c-0.8-0.4-1.3-0.9-1.8-1.6C81.5,75.5,81.3,74.8,81.3,73.9z
			 M91.1,75.1c0.2-0.3,0.4-0.5,0.5-0.7c0.1-0.2,0.2-0.5,0.2-0.6v-2.1c-0.6-0.2-1.3-0.4-2-0.6c-0.7-0.1-1.4-0.2-2.1-0.2
			c-1.4,0-2.5,0.3-3.3,0.8c-0.8,0.5-1.3,1.3-1.3,2.2c0,0.5,0.1,1,0.4,1.5c0.3,0.5,0.7,0.9,1.2,1.2c0.5,0.3,1.2,0.5,1.9,0.5
			c0.9,0,1.8-0.2,2.6-0.5S90.6,75.6,91.1,75.1z"/>
		<path d="M98.6,82.6c0.3,0,0.5,0,0.8,0c0.2,0,0.4,0,0.5,0c0.2,0,0.4-0.2,0.6-0.4c0.2-0.2,0.4-0.7,0.7-1.3c0.3-0.6,0.7-1.6,1.2-2.8
			L96,63.6h2l5.3,12.6l4.9-12.6h1.9l-7.6,18.8c-0.1,0.4-0.3,0.7-0.6,1c-0.3,0.3-0.6,0.5-1,0.7c-0.4,0.2-0.9,0.3-1.4,0.3
			c-0.2,0-0.3,0-0.5,0s-0.4,0-0.6-0.1V82.6z"/>
		<path d="M120.4,78.1V58.2h8.4c0.9,0,1.6,0.2,2.4,0.5c0.7,0.4,1.3,0.8,1.9,1.4c0.5,0.6,0.9,1.3,1.2,2c0.3,0.7,0.4,1.5,0.4,2.3
			c0,1-0.2,1.8-0.5,2.7c-0.4,0.8-0.9,1.5-1.5,2.1c-0.7,0.6-1.4,1-2.3,1.1l4.9,7.7h-2.2l-4.7-7.3h-5.9v7.3H120.4z M122.4,69h6.5
			c0.8,0,1.5-0.2,2-0.6c0.6-0.4,1-1,1.3-1.7s0.5-1.4,0.5-2.2c0-0.8-0.2-1.5-0.5-2.2c-0.4-0.7-0.8-1.2-1.5-1.7
			c-0.6-0.4-1.3-0.6-2-0.6h-6.3V69z"/>
		<path d="M144.6,78.4c-1,0-2-0.2-2.9-0.6c-0.9-0.4-1.7-0.9-2.3-1.6c-0.7-0.7-1.2-1.5-1.5-2.4c-0.4-0.9-0.5-1.9-0.5-2.9
			c0-1.4,0.3-2.6,0.9-3.7c0.6-1.1,1.5-2,2.6-2.7c1.1-0.7,2.4-1,3.8-1c1.4,0,2.7,0.3,3.8,1c1.1,0.7,1.9,1.6,2.5,2.7
			c0.6,1.1,0.9,2.3,0.9,3.7c0,0.1,0,0.3,0,0.4c0,0.1,0,0.2,0,0.3h-12.5c0.1,1,0.4,2,0.9,2.8s1.1,1.4,1.9,1.9
			c0.8,0.5,1.7,0.7,2.6,0.7c1,0,1.9-0.2,2.7-0.7c0.8-0.5,1.4-1.1,1.8-1.9l1.7,0.4c-0.3,0.7-0.8,1.3-1.4,1.9c-0.6,0.6-1.3,1-2.2,1.3
			C146.5,78.2,145.6,78.4,144.6,78.4z M139.2,70.2H150c-0.1-1.1-0.4-2-0.9-2.8s-1.1-1.4-1.9-1.9s-1.7-0.7-2.6-0.7
			c-1,0-1.8,0.2-2.6,0.7c-0.8,0.5-1.4,1.1-1.9,1.9S139.3,69.1,139.2,70.2z"/>
		<path d="M160.6,78.4c-1,0-1.9-0.2-2.7-0.6s-1.6-1-2.2-1.7s-1.1-1.5-1.4-2.4c-0.3-0.9-0.5-1.8-0.5-2.8c0-1,0.2-2,0.5-2.9
			c0.3-0.9,0.8-1.7,1.4-2.4c0.6-0.7,1.3-1.3,2.1-1.7c0.8-0.4,1.7-0.6,2.7-0.6c1.2,0,2.3,0.3,3.3,0.9c0.9,0.6,1.7,1.4,2.3,2.3v-3.1
			h1.7v14.6c0,1.3-0.3,2.5-1,3.4c-0.6,0.9-1.5,1.6-2.6,2.1s-2.3,0.7-3.6,0.7c-1.7,0-3-0.3-4-0.9c-1-0.6-1.9-1.4-2.5-2.4l1.2-0.9
			c0.6,0.9,1.3,1.6,2.3,2c1,0.4,2,0.7,3.1,0.7c1,0,1.8-0.2,2.6-0.5c0.8-0.3,1.4-0.8,1.9-1.5s0.7-1.5,0.7-2.6v-2.9
			c-0.6,0.9-1.3,1.6-2.3,2.2C162.7,78.1,161.7,78.4,160.6,78.4z M161.1,76.8c0.6,0,1.1-0.1,1.7-0.3c0.5-0.2,1-0.5,1.5-0.8
			c0.4-0.3,0.8-0.7,1.1-1.2c0.3-0.4,0.5-0.9,0.6-1.3v-4.5c-0.3-0.7-0.7-1.3-1.2-1.9c-0.5-0.5-1.1-1-1.8-1.3
			c-0.7-0.3-1.3-0.5-2.1-0.5c-0.8,0-1.6,0.2-2.2,0.5c-0.6,0.3-1.2,0.8-1.6,1.4c-0.4,0.6-0.8,1.2-1,1.9c-0.2,0.7-0.4,1.4-0.4,2.1
			c0,0.8,0.1,1.5,0.4,2.2c0.3,0.7,0.7,1.3,1.2,1.9c0.5,0.6,1.1,1,1.7,1.3C159.7,76.6,160.4,76.8,161.1,76.8z"/>
		<path d="M171.9,72.1v-8.5h1.9v8.2c0,1.7,0.3,2.9,0.9,3.7c0.6,0.8,1.4,1.2,2.5,1.2c0.7,0,1.5-0.2,2.2-0.5c0.7-0.3,1.3-0.8,1.9-1.4
			c0.5-0.6,1-1.3,1.2-2.1v-9.1h1.9v12.2c0,0.3,0.1,0.5,0.2,0.6c0.1,0.1,0.3,0.2,0.5,0.2v1.5c-0.2,0-0.4,0-0.5,0c-0.1,0-0.3,0-0.4,0
			c-0.4,0-0.7-0.2-1-0.4c-0.3-0.3-0.4-0.6-0.4-0.9l-0.1-2c-0.6,1.1-1.5,2-2.6,2.6c-1.1,0.6-2.3,0.9-3.5,0.9c-1.5,0-2.7-0.5-3.5-1.6
			C172.3,75.7,171.9,74.2,171.9,72.1z"/>
		<path d="M188.8,57.7h1.9v17.2c0,0.7,0.1,1.2,0.4,1.4c0.3,0.2,0.6,0.3,1,0.3c0.3,0,0.7,0,1-0.1c0.3-0.1,0.6-0.1,0.9-0.2l0.3,1.5
			c-0.4,0.1-0.8,0.3-1.3,0.4s-1,0.1-1.3,0.1c-0.9,0-1.5-0.3-2.1-0.8c-0.5-0.5-0.8-1.2-0.8-2.1V57.7z"/>
		<path d="M195.1,73.9c0-0.9,0.3-1.7,0.8-2.4c0.5-0.7,1.2-1.2,2.2-1.5c0.9-0.4,2-0.5,3.2-0.5c0.7,0,1.4,0.1,2.2,0.2
			c0.8,0.1,1.4,0.3,2,0.5V69c0-1.2-0.4-2.2-1.1-2.9c-0.7-0.7-1.7-1.1-3-1.1c-0.8,0-1.6,0.1-2.3,0.4c-0.8,0.3-1.5,0.7-2.4,1.3
			l-0.7-1.3c1-0.7,1.9-1.1,2.8-1.5c0.9-0.3,1.8-0.5,2.8-0.5c1.8,0,3.2,0.5,4.3,1.5c1,1,1.6,2.4,1.6,4.2v6.7c0,0.3,0.1,0.5,0.2,0.6
			c0.1,0.1,0.3,0.2,0.5,0.2v1.5c-0.2,0-0.4,0-0.5,0.1s-0.3,0-0.3,0c-0.5,0-0.8-0.2-1.1-0.4c-0.2-0.3-0.4-0.6-0.4-0.9l0-1.1
			c-0.7,0.8-1.5,1.5-2.5,1.9c-1,0.5-2.1,0.7-3.2,0.7c-0.9,0-1.8-0.2-2.5-0.6c-0.8-0.4-1.3-0.9-1.8-1.6S195.1,74.8,195.1,73.9z
			 M204.9,75.1c0.2-0.3,0.4-0.5,0.5-0.7s0.2-0.5,0.2-0.6v-2.1c-0.6-0.2-1.3-0.4-2-0.6c-0.7-0.1-1.4-0.2-2.1-0.2
			c-1.4,0-2.5,0.3-3.3,0.8c-0.8,0.5-1.3,1.3-1.3,2.2c0,0.5,0.1,1,0.4,1.5s0.7,0.9,1.2,1.2c0.5,0.3,1.2,0.5,1.9,0.5
			c0.9,0,1.8-0.2,2.6-0.5C203.9,76.1,204.5,75.6,204.9,75.1z"/>
		<path d="M218.8,65.2c-1.3,0-2.4,0.4-3.3,1.1c-1,0.7-1.6,1.6-2,2.8v9.1h-1.9V63.6h1.8V67c0.5-1,1.2-1.9,2-2.5
			c0.8-0.6,1.7-1,2.6-1.1c0.2,0,0.3,0,0.5,0c0.1,0,0.3,0,0.3,0V65.2z"/>
	</g>
</g>
<g>
	<g class="st2">
		<path d="M2.4,114.2V94.3h8.5c0.9,0,1.7,0.2,2.4,0.5s1.4,0.8,1.9,1.5c0.5,0.6,1,1.3,1.3,2c0.3,0.8,0.4,1.5,0.4,2.3
			c0,0.9-0.2,1.8-0.5,2.6c-0.3,0.8-0.8,1.5-1.5,2.1c-0.6,0.6-1.4,1-2.2,1.2l4.8,7.6h-2.9l-4.5-7.1H4.9v7.1H2.4z M4.9,104.8h6
			c0.7,0,1.3-0.2,1.8-0.6c0.5-0.4,0.9-0.9,1.2-1.5c0.3-0.6,0.4-1.3,0.4-2c0-0.7-0.2-1.4-0.5-2.1c-0.3-0.6-0.8-1.1-1.3-1.5
			c-0.5-0.4-1.1-0.6-1.8-0.6H4.9V104.8z"/>
		<path d="M19.2,110c0-0.9,0.3-1.7,0.8-2.4c0.5-0.7,1.3-1.2,2.2-1.6c0.9-0.4,2-0.6,3.2-0.6c0.7,0,1.3,0.1,2.1,0.2
			c0.7,0.1,1.4,0.3,1.9,0.5V105c0-1.1-0.3-2-1-2.6c-0.7-0.6-1.6-1-2.9-1c-0.8,0-1.6,0.1-2.3,0.4c-0.7,0.3-1.5,0.7-2.3,1.2l-0.9-1.7
			c1-0.7,1.9-1.1,2.9-1.5c1-0.3,1.9-0.5,3-0.5c1.9,0,3.3,0.5,4.4,1.5c1.1,1,1.6,2.5,1.6,4.3v6.1c0,0.3,0.1,0.5,0.2,0.7
			c0.1,0.1,0.3,0.2,0.6,0.2v1.9c-0.2,0-0.5,0.1-0.6,0.1c-0.2,0-0.3,0-0.4,0c-0.6,0-1-0.2-1.3-0.5c-0.3-0.3-0.5-0.7-0.5-1l-0.1-0.9
			c-0.6,0.8-1.5,1.5-2.5,1.9c-1,0.4-2,0.7-3.1,0.7c-1,0-1.8-0.2-2.6-0.6c-0.8-0.4-1.4-0.9-1.8-1.6C19.5,111.6,19.2,110.8,19.2,110z
			 M28.8,111c0.2-0.3,0.4-0.5,0.5-0.8c0.1-0.3,0.2-0.5,0.2-0.7v-1.8c-0.6-0.2-1.2-0.4-1.8-0.5c-0.6-0.1-1.3-0.2-1.9-0.2
			c-1.3,0-2.3,0.2-3,0.7c-0.8,0.5-1.2,1.2-1.2,2c0,0.5,0.1,0.9,0.4,1.3s0.6,0.8,1.1,1.1s1.1,0.4,1.8,0.4c0.8,0,1.5-0.2,2.2-0.5
			C27.8,111.9,28.3,111.5,28.8,111z"/>
		<path d="M36,93.8h2.5v16.7c0,0.8,0.1,1.3,0.3,1.5c0.2,0.2,0.5,0.3,0.8,0.3c0.4,0,0.8,0,1.1-0.1s0.7-0.2,0.9-0.3l0.4,2
			c-0.4,0.2-0.9,0.3-1.5,0.4c-0.6,0.1-1.1,0.2-1.5,0.2c-1,0-1.7-0.3-2.3-0.8c-0.6-0.5-0.8-1.3-0.8-2.3V93.8z"/>
		<path d="M50.4,114.5c-1.1,0-2.1-0.2-3-0.6c-0.9-0.4-1.7-0.9-2.4-1.6c-0.7-0.7-1.2-1.5-1.5-2.4c-0.4-0.9-0.5-1.9-0.5-2.9
			c0-1.4,0.3-2.6,1-3.8c0.6-1.1,1.5-2,2.6-2.7s2.4-1,3.9-1c1.5,0,2.8,0.3,3.9,1s1.9,1.6,2.5,2.7s0.9,2.3,0.9,3.6c0,0.2,0,0.4,0,0.5
			c0,0.2,0,0.3,0,0.4H45.5c0.1,0.9,0.3,1.8,0.8,2.5c0.5,0.7,1,1.3,1.8,1.7s1.5,0.6,2.4,0.6c0.9,0,1.7-0.2,2.5-0.7
			c0.8-0.4,1.3-1,1.6-1.8l2.1,0.6c-0.3,0.7-0.8,1.3-1.4,1.9c-0.6,0.6-1.4,1-2.2,1.3C52.3,114.3,51.4,114.5,50.4,114.5z M45.4,106.1
			h10c-0.1-0.9-0.3-1.8-0.8-2.5c-0.5-0.7-1.1-1.3-1.8-1.7s-1.5-0.6-2.4-0.6c-0.9,0-1.7,0.2-2.4,0.6s-1.3,1-1.8,1.7
			C45.8,104.3,45.5,105.1,45.4,106.1z"/>
		<path d="M78.8,99.7h2.4l-6.2,14.5h-2.2l-2.8-6.8l-2.8,6.8H65l-6.2-14.5h2.4l5,12.1l2.4-6l-2.5-6.1h2.2l1.7,4.6l1.7-4.6h2.2
			l-2.4,6.1l2.4,6L78.8,99.7z"/>
		<path d="M82.3,110c0-0.9,0.3-1.7,0.8-2.4c0.5-0.7,1.3-1.2,2.2-1.6c0.9-0.4,2-0.6,3.2-0.6c0.7,0,1.3,0.1,2.1,0.2
			c0.7,0.1,1.4,0.3,1.9,0.5V105c0-1.1-0.3-2-1-2.6c-0.7-0.6-1.6-1-2.9-1c-0.8,0-1.6,0.1-2.3,0.4c-0.7,0.3-1.5,0.7-2.3,1.2l-0.9-1.7
			c1-0.7,1.9-1.1,2.9-1.5c1-0.3,1.9-0.5,3-0.5c1.9,0,3.3,0.5,4.4,1.5c1.1,1,1.6,2.5,1.6,4.3v6.1c0,0.3,0.1,0.5,0.2,0.7
			c0.1,0.1,0.3,0.2,0.6,0.2v1.9c-0.2,0-0.5,0.1-0.6,0.1c-0.2,0-0.3,0-0.4,0c-0.6,0-1-0.2-1.3-0.5c-0.3-0.3-0.5-0.7-0.5-1l-0.1-0.9
			c-0.6,0.8-1.5,1.5-2.5,1.9c-1,0.4-2,0.7-3.1,0.7c-1,0-1.8-0.2-2.6-0.6c-0.8-0.4-1.4-0.9-1.8-1.6C82.5,111.6,82.3,110.8,82.3,110z
			 M91.8,111c0.2-0.3,0.4-0.5,0.5-0.8c0.1-0.3,0.2-0.5,0.2-0.7v-1.8c-0.6-0.2-1.2-0.4-1.8-0.5c-0.6-0.1-1.3-0.2-1.9-0.2
			c-1.3,0-2.3,0.2-3,0.7c-0.8,0.5-1.2,1.2-1.2,2c0,0.5,0.1,0.9,0.4,1.3s0.6,0.8,1.1,1.1s1.1,0.4,1.8,0.4c0.8,0,1.5-0.2,2.2-0.5
			C90.8,111.9,91.4,111.5,91.8,111z"/>
		<path d="M99.6,118.2c0.2,0,0.5,0,0.7,0.1c0.2,0,0.4,0,0.6,0c0.3,0,0.6-0.1,0.8-0.3c0.2-0.2,0.5-0.6,0.7-1.2c0.3-0.6,0.6-1.4,1-2.6
			l-6.2-14.6h2.6l4.9,12.1l4.5-12.1h2.4l-7.1,18.4c-0.2,0.4-0.4,0.8-0.7,1.2s-0.7,0.7-1.2,0.9c-0.5,0.2-1.1,0.3-1.8,0.3
			c-0.2,0-0.3,0-0.5,0c-0.2,0-0.4-0.1-0.7-0.1V118.2z"/>
		<path d="M138.9,114.2V99l-6.6,11.7h-1.5L124.2,99v15.2h-2.5V94.3h2.7l7.2,12.9l7.2-12.9h2.6v19.9H138.9z"/>
		<path d="M152.2,114.5c-1.1,0-2.1-0.2-3-0.6c-0.9-0.4-1.7-0.9-2.4-1.6c-0.7-0.7-1.2-1.5-1.5-2.4c-0.4-0.9-0.5-1.9-0.5-2.9
			c0-1.4,0.3-2.6,1-3.8c0.6-1.1,1.5-2,2.6-2.7c1.1-0.7,2.4-1,3.9-1c1.5,0,2.8,0.3,3.8,1s1.9,1.6,2.5,2.7s0.9,2.3,0.9,3.6
			c0,0.2,0,0.4,0,0.5c0,0.2,0,0.3,0,0.4h-12.1c0.1,0.9,0.3,1.8,0.8,2.5c0.5,0.7,1,1.3,1.8,1.7c0.7,0.4,1.5,0.6,2.4,0.6
			c0.9,0,1.7-0.2,2.5-0.7c0.8-0.4,1.3-1,1.6-1.8l2.1,0.6c-0.3,0.7-0.8,1.3-1.4,1.9c-0.6,0.6-1.4,1-2.2,1.3S153.2,114.5,152.2,114.5z
			 M147.3,106.1h10c-0.1-0.9-0.3-1.8-0.8-2.5s-1.1-1.3-1.8-1.7c-0.7-0.4-1.5-0.6-2.4-0.6c-0.9,0-1.7,0.2-2.4,0.6
			c-0.7,0.4-1.3,1-1.8,1.7C147.6,104.3,147.4,105.1,147.3,106.1z"/>
		<path d="M161.4,107c0-1.4,0.3-2.6,0.9-3.8c0.6-1.1,1.4-2.1,2.4-2.7c1-0.7,2.1-1,3.4-1c1.2,0,2.2,0.3,3.2,0.9s1.7,1.4,2.2,2.2v-8.8
			h2.5v17.6c0,0.3,0.1,0.5,0.2,0.7c0.1,0.1,0.3,0.2,0.6,0.2v1.9c-0.5,0.1-0.8,0.1-1.1,0.1c-0.5,0-0.9-0.2-1.3-0.5
			c-0.4-0.3-0.5-0.7-0.5-1.1v-1.2c-0.6,0.9-1.4,1.7-2.3,2.2c-1,0.5-2,0.8-3,0.8c-1,0-1.9-0.2-2.8-0.6c-0.8-0.4-1.6-0.9-2.2-1.7
			c-0.6-0.7-1.1-1.5-1.5-2.4C161.5,108.9,161.4,108,161.4,107z M173.3,109.1v-4.2c-0.2-0.6-0.6-1.2-1.1-1.7s-1.1-0.9-1.7-1.2
			c-0.6-0.3-1.2-0.5-1.9-0.5c-0.7,0-1.4,0.2-2,0.5c-0.6,0.3-1.1,0.7-1.5,1.2s-0.7,1.1-1,1.7s-0.3,1.3-0.3,2c0,0.7,0.1,1.4,0.4,2.1
			c0.3,0.6,0.6,1.2,1.1,1.7c0.5,0.5,1,0.9,1.6,1.2s1.3,0.4,2,0.4c0.4,0,0.9-0.1,1.4-0.2c0.5-0.2,0.9-0.4,1.4-0.7s0.8-0.6,1.1-1
			C173.1,110,173.3,109.5,173.3,109.1z"/>
		<path d="M179.9,96.8v-3.1h2.5v3.1H179.9z M179.9,114.2V99.6h2.5v14.6H179.9z"/>
		<path d="M186.2,108.4v-8.7h2.5v8.2c0,1.5,0.3,2.6,0.8,3.3c0.5,0.7,1.3,1.1,2.3,1.1c0.7,0,1.3-0.1,1.9-0.4c0.6-0.3,1.2-0.7,1.7-1.2
			c0.5-0.5,0.9-1.2,1.2-1.9v-9.1h2.5v11.7c0,0.3,0.1,0.5,0.2,0.7c0.1,0.1,0.3,0.2,0.6,0.2v1.9c-0.3,0-0.5,0.1-0.7,0.1
			c-0.2,0-0.3,0-0.5,0c-0.5,0-0.9-0.1-1.2-0.4c-0.3-0.3-0.5-0.6-0.5-1.1l-0.1-1.7c-0.6,1.1-1.5,1.9-2.6,2.5
			c-1.1,0.6-2.2,0.9-3.5,0.9c-1.5,0-2.7-0.5-3.5-1.5C186.6,111.9,186.2,110.4,186.2,108.4z"/>
		<path d="M225.2,114.2h-2.5v-8.1c0-1.5-0.2-2.6-0.7-3.4c-0.5-0.7-1.2-1.1-2.2-1.1c-1,0-1.9,0.4-2.7,1.1s-1.4,1.6-1.7,2.8v8.7H213
			v-8.1c0-1.5-0.2-2.7-0.7-3.4c-0.5-0.7-1.2-1.1-2.2-1.1s-1.9,0.3-2.7,1c-0.8,0.7-1.4,1.6-1.7,2.8v8.8h-2.5V99.7h2.2v3.1
			c0.6-1.1,1.4-1.9,2.3-2.5c1-0.6,2-0.9,3.2-0.9c1.2,0,2.2,0.3,2.9,1c0.7,0.7,1.2,1.5,1.3,2.5c0.7-1.1,1.4-2,2.4-2.6
			c0.9-0.6,2-0.9,3.2-0.9c0.8,0,1.5,0.2,2.1,0.5c0.6,0.3,1,0.7,1.4,1.3c0.3,0.5,0.6,1.2,0.7,1.9s0.2,1.5,0.2,2.4V114.2z"/>
	</g>
</g>
<circle class="st3" cx="291.2" cy="86.7" r="24.6"/>
<g>
	<text transform="matrix(1 0 0 1 273.4703 126.3877)" class="st4 st5">#451544</text>
</g>
<circle cx="425.1" cy="86.7" r="24.6"/>
<g>
	<text transform="matrix(1 0 0 1 406.2651 126.3874)" class="st4 st5">#000000</text>
</g>
<circle class="st6" cx="358.2" cy="86.7" r="24.6"/>
<g>
	<text transform="matrix(1 0 0 1 341.4636 126.4891)" class="st4 st5">#FFFFFF</text>
</g>
</svg>
