<svg id="Layer_1" data-name="Layer 1" xmlns="http://www.w3.org/2000/svg" viewBox="0 0 316.6 454.5"><defs><style>.cls-1,.cls-10,.cls-2,.cls-3,.cls-4,.cls-5{isolation:isolate;}.cls-1,.cls-2,.cls-4,.cls-5{font-size:42.35px;}.cls-1{font-family:Ubuntu-Medium, Ubuntu;font-weight:500;}.cls-2{font-family:Ubuntu-Regular, Ubuntu;}.cls-10,.cls-4,.cls-5{font-family:Avenir-Book, Avenir;}.cls-4{letter-spacing:-0.02em;}.cls-6{opacity:0.7;}.cls-7,.cls-8{fill:#858585;}.cls-7{fill-rule:evenodd;}.cls-9{fill:#282728;}.cls-10{font-size:12px;fill:#fff;}.cls-11{fill:#3e3d3d;}.cls-12{fill:#7c7e7d;}.cls-13{fill:#b1b0b0;}.cls-14{fill:#cccdcd;}.cls-15{fill:#7cdebe;}</style></defs><text class="cls-1" transform="translate(0 35.85)">Ubuntu Medium</text><text class="cls-2" transform="translate(0 91.7)">Ubuntu Regular</text><g class="cls-3"><text class="cls-4" transform="translate(0 142.1)">A</text><text class="cls-5" transform="translate(28.29 142.1)">venir Book</text></g><g id="Symbols" class="cls-6"><g id="Group-3"><g id="flaticon1488561964-svg"><g id="Capa_1" data-name="Capa 1"><path id="Shape" class="cls-7" d="M83.85,434.4a16.51,16.51,0,1,0,16.51,16.51A16.51,16.51,0,0,0,83.85,434.4Zm7.07,24.15H76.77a1.18,1.18,0,1,1,0-2.36H90.92a1.18,1.18,0,0,1,0,2.36Zm0-6.48H76.77a1.18,1.18,0,1,1,0-2.35H90.92a1.18,1.18,0,1,1,0,2.35Zm0-6.48H76.77a1.18,1.18,0,0,1,0-2.36H90.92a1.18,1.18,0,0,1,0,2.36Z" transform="translate(-8.35 -12.92)"/></g></g></g></g><g id="Symbols-2" class="cls-6"><g id="Group"><g id="flaticon1555740565-svg"><path id="Shape-2" class="cls-8" d="M26.66,434.4a16.51,16.51,0,1,0,16.51,16.51A16.51,16.51,0,0,0,26.66,434.4Zm.05,24.28H19.57c0-5.16,4.52-5.16,5.5-6.5l.12-.62a4.91,4.91,0,0,1-2.41-4.45c0-2.66,1.73-4.81,3.86-4.81s3.85,2.15,3.85,4.81a4.94,4.94,0,0,1-2.36,4.44l.14.7c1.1,1.28,5.5,1.36,5.5,6.43Z" transform="translate(-8.35 -12.92)"/></g></g></g><g id="Symbols-3" class="cls-6"><g id="Group-4"><g id="Group-12"><path id="Combined-Shape" class="cls-7" d="M141,434.4a16.51,16.51,0,1,1-16.51,16.51A16.51,16.51,0,0,1,141,434.4Zm2.31,10.8a3.53,3.53,0,0,1,1.64,2.61,2.84,2.84,0,1,0,1.21-5.42,2.85,2.85,0,0,0-2.85,2.81ZM141.49,451a2.85,2.85,0,1,0-2.85-2.84h0a2.85,2.85,0,0,0,2.85,2.84Zm1.2.2h-2.41a3.64,3.64,0,0,0-3.64,3.64v3l.19.06a16.75,16.75,0,0,0,5,.79,10,10,0,0,0,4.33-.79l.19-.09h0v-3a3.65,3.65,0,0,0-3.62-3.65Zm4.72-2.94h-2.36a3.54,3.54,0,0,1-1.09,2.44,4.32,4.32,0,0,1,3.09,4.15v.91a10,10,0,0,0,3.82-.79l.19-.1h0v-2.95a3.65,3.65,0,0,0-3.65-3.65h0Zm-10.91-.2a2.85,2.85,0,0,0,1.51-.43,3.56,3.56,0,0,1,1.33-2.25v-.16a2.85,2.85,0,1,0-2.85,2.84Zm2.56,2.64a3.5,3.5,0,0,1-1.09-2.43h-2.68a3.66,3.66,0,0,0-3.65,3.65h0v3l.21.06a17.39,17.39,0,0,0,4.1.79v-.89a4.33,4.33,0,0,1,3.1-4.18Z" transform="translate(-8.35 -12.92)"/></g></g></g><g id="Symbols-4" class="cls-6"><g id="Group-5"><g id="Group-2"><path id="Combined-Shape-2" class="cls-7" d="M198.23,434.4a16.51,16.51,0,1,1-16.51,16.51,16.51,16.51,0,0,1,16.51-16.51Zm7.43,8.3h-.91v-1.48h-1.51v1.51h-10v-1.51h-1.52v1.51h-.92a2.28,2.28,0,0,0-2.27,2.28v13.36a2.27,2.27,0,0,0,2.27,2.27h14.86a2.27,2.27,0,0,0,2.27-2.27h0V445a2.27,2.27,0,0,0-2.24-2.31Zm.79,15.62a.79.79,0,0,1-.79.79H190.8a.78.78,0,0,1-.78-.79v-10h16.37Zm0-11.52h-16.4V445a.78.78,0,0,1,.78-.78h.92v1.52h1.49V444.2h10v1.52h1.51V444.2h.91a.78.78,0,0,1,.78.78Zm-15,3.11v1.53H193v-1.52Zm3,0v1.53H196v-1.52Zm3,0v1.53H199v-1.52Zm3,0v1.53H202v-1.52Zm3,0v1.53H205v-1.52Zm-12.13,3v1.52H193v-1.52Zm3,0v1.52H196v-1.52Zm3,0v1.52H199v-1.52Zm3,0v1.52H202v-1.52Zm-9.1,3v1.52H193V456Zm3,0v1.52H196V456Zm3,0v1.52H199V456Zm3,0v1.52H202V456Zm3-3v1.52H205v-1.52Z" transform="translate(-8.35 -12.92)"/></g></g></g><g id="Symbols-5" class="cls-6"><g id="Group-6"><g id="Group-13"><path id="Combined-Shape-3" class="cls-7" d="M255.42,434.4a16.51,16.51,0,1,1-16.51,16.51,16.51,16.51,0,0,1,16.51-16.51Zm-.11,6.87a5.41,5.41,0,0,0-5.3,5.39c0,3.33,3.32,6.7,5,8.19h0l.34.29c1.52-1.3,5.34-4.91,5.34-8.49a5.39,5.39,0,0,0-5.3-5.38h-.08Zm.12,18.93c3.2,0,6.44-.92,6.44-2.68,0-1.26-1.67-2.08-3.78-2.45a14.42,14.42,0,0,1-1.12,1.05c2.36.24,3.7,1,3.7,1.4s-2,1.47-5.24,1.47-5.24-.95-5.24-1.47,1.31-1.13,3.55-1.38c-.33-.3-.7-.65-1.1-1.05-2.06.38-3.66,1.2-3.66,2.43C249,459.3,252.2,460.2,255.43,460.2Z" transform="translate(-8.35 -12.92)"/><circle id="Oval" class="cls-8" cx="247.05" cy="433.2" r="2.79"/></g></g></g><rect class="cls-9" x="0.38" y="185.07" width="91.09" height="91.09" rx="14.97"/><text class="cls-10" transform="translate(22.57 234.01)">#282728</text><rect class="cls-11" x="103.46" y="185.07" width="91.09" height="91.09" rx="14.97"/><g class="cls-3"><text class="cls-10" transform="translate(123.21 234.01)">#3E3D3D</text></g><rect class="cls-12" x="206.98" y="185.15" width="91.09" height="91.09" rx="14.97"/><g class="cls-3"><text class="cls-10" transform="translate(226.95 234.08)">#7C7E7D</text></g><rect class="cls-13" x="0.89" y="289.04" width="91.09" height="91.09" rx="14.97"/><g class="cls-3"><text class="cls-10" transform="translate(21.75 337.98)">#B1B0B0</text></g><rect class="cls-14" x="103.44" y="289.32" width="91.09" height="91.09" rx="14.97"/><g class="cls-3"><text class="cls-10" transform="translate(119.86 338.26)">#CCCDCD</text></g><rect class="cls-15" x="206.61" y="289.32" width="91.09" height="91.09" rx="14.97"/><g class="cls-3"><text class="cls-10" transform="translate(225.91 338.26)">#7CDEBE</text></g></svg>