<svg xmlns="http://www.w3.org/2000/svg" viewBox="0 0 152.79 152.79"><defs><style>.cls-1{fill:#282728;}.cls-2{fill:#8ee6b2;}.cls-3{fill:#a5dc95;}.cls-4{fill:#85f1ce;}</style></defs><title>Asset 8</title><g id="Layer_2" data-name="Layer 2"><g id="Layer_2-2" data-name="Layer 2"><rect class="cls-1" width="152.79" height="152.79" rx="24.13"/></g><g id="Layer_1-2" data-name="Layer 1"><polygon class="cls-2" points="105.59 64.76 98.17 73.57 86.19 87.8 47.29 87.8 54.67 79.05 66.7 64.76 105.59 64.76"/><path class="cls-3" d="M105.59,64.76v35.77L87.41,122.12a11.52,11.52,0,0,1-17.64-14.83L86.19,87.8l12-14.23Z"/><path class="cls-4" d="M83.07,45.37,66.7,64.82l-12,14.29-7.38,8.75h0V83.12l0-18.3V52.19L65.42,30.56a11.52,11.52,0,0,1,16.19-1.43l.08.06A11.52,11.52,0,0,1,83.07,45.37Z"/></g></g></svg>